<svg width="95" height="40" viewBox="0 0 95 40" fill="none" xmlns="http://www.w3.org/2000/svg">
<g clip-path="url(#clip0_592_2057)">
<path d="M58.4792 0H0.300286C0.0961913 0 -0.0478754 0.204819 0.0181552 0.39759L1.38679 4.46988C1.42881 4.59036 1.54286 4.6747 1.66892 4.6747H53.8151C53.9832 4.6747 54.1152 4.80723 54.1152 4.9759V35.0181C54.1152 35.1867 53.9832 35.3193 53.8151 35.3193H12.1498C11.9457 35.3193 11.8016 35.5241 11.8676 35.7169L13.2363 39.7892C13.2783 39.9096 13.3923 39.994 13.5184 39.994H58.4792C58.6473 39.994 58.7794 39.8614 58.7794 39.6928V0.301205C58.7794 0.13253 58.6473 0 58.4792 0Z" fill="#0067F4"/>
<path d="M28.5665 13.4946V9.4223C28.5665 9.25362 28.4344 9.12109 28.2664 9.12109H3.36083C3.15674 9.12109 3.01267 9.32591 3.0787 9.51868L4.44734 13.591C4.48936 13.7115 4.60341 13.7958 4.72947 13.7958H28.2724C28.4404 13.7958 28.5725 13.6633 28.5725 13.4946H28.5665Z" fill="#0067F4"/>
<path d="M28.5667 22.229V18.1567C28.5667 17.988 28.4346 17.8555 28.2666 17.8555H6.29638C6.09228 17.8555 5.94822 18.0603 6.01425 18.2531L7.38288 22.3253C7.4249 22.4458 7.53896 22.5302 7.66501 22.5302H28.2726C28.4406 22.5302 28.5727 22.3976 28.5727 22.229H28.5667Z" fill="#0067F4"/>
<path d="M28.5669 30.9633V26.891C28.5669 26.7224 28.4348 26.5898 28.2667 26.5898H9.23193C9.02783 26.5898 8.88377 26.7947 8.9498 26.9874L10.3184 31.0597C10.3604 31.1802 10.4745 31.2645 10.6006 31.2645H28.2727C28.4408 31.2645 28.5729 31.132 28.5729 30.9633H28.5669Z" fill="#0067F4"/>
<path d="M94.9468 19.4458L81.9267 0.13253C81.8727 0.0481928 81.7767 0 81.6806 0H63.7923C63.6242 0 63.4922 0.13253 63.4922 0.301205V21.1506C63.4922 21.3193 63.6242 21.4518 63.7923 21.4518H82.8211C82.9892 21.4518 83.1213 21.3193 83.1213 21.1506V17.0783C83.1213 16.9096 82.9892 16.7771 82.8211 16.7771H68.4565C68.2884 16.7771 68.1564 16.6446 68.1564 16.4759V4.98193C68.1564 4.81325 68.2884 4.68072 68.4565 4.68072H79.2075C79.3095 4.68072 79.3996 4.72892 79.4536 4.81325L90.2886 20.8855C90.3246 20.9337 90.3426 20.994 90.3426 21.0542V34.9699C90.3426 35.1386 90.2106 35.2711 90.0425 35.2711H63.7923C63.6242 35.2711 63.4922 35.4036 63.4922 35.5723V39.6446C63.4922 39.8133 63.6242 39.9458 63.7923 39.9458H94.7006C94.8687 39.9458 95.0008 39.8133 95.0008 39.6446V19.6205C95.0008 19.5602 94.9828 19.5 94.9468 19.4518V19.4458Z" fill="#0067F4"/>
</g>
<defs>
<clipPath id="clip0_592_2057">
<rect width="95" height="40" fill="white"/>
</clipPath>
</defs>
</svg>
